# xmcd
#
# Track frame offsets:
#        150
#        16220
#        30027
#        43602
#        58132
#        67527
#        84740
#        99642
#        114567
#        132157
#        149627
#        165812
#        184077
#        200445
#        213865
#        230522
#        247537
#        260427
#        277252
#
# Disc length: 3911 seconds
#
# Revision: 0
# Processed by: cddbd v1.5.1PL2 Copyright (c) Steve Scherf et al.
# Submitted via: ExactAudioCopy v0.95b4
#
DISCID=fb0f4513
DTITLE=Various Artist - The Romantic FLUTE
DYEAR=1900
DGENRE=Easy Listening
TTITLE0=Somewhere
TTITLE1=Out Of Africa
TTITLE2=Annie's Song
TTITLE3=Let It Be
TTITLE4=Eleanor Rigby
TTITLE5=Sorry Seems To Be The Hardest Word
TTITLE6=Nights In White Stain
TTITLE7=Pipes Of Peace
TTITLE8=Love Letters
TTITLE9=Bright Eyes
TTITLE10=Like A Virgin
TTITLE11=Tonight
TTITLE12=A Woman In Love
TTITLE13=Lucy In The Sky With Diamonds
TTITLE14=Time After Time
TTITLE15=People
TTITLE16=Happy Together
TTITLE17=I Just Can't Stop Loving You
TTITLE18=Something
EXTD=
EXTT0=
EXTT1=
EXTT2=
EXTT3=
EXTT4=
EXTT5=
EXTT6=
EXTT7=
EXTT8=
EXTT9=
EXTT10=
EXTT11=
EXTT12=
EXTT13=
EXTT14=
EXTT15=
EXTT16=
EXTT17=
EXTT18=
PLAYORDER=
